<svg width="242" height="61" viewBox="0 0 242 61" fill="none" xmlns="http://www.w3.org/2000/svg">
<rect x="0.5" y="0.5" width="70" height="24" rx="12" stroke="white"/>
<path d="M13.2279 19V7.8H15.7719V12.376H20.5399V7.8H23.0839V19H20.5399V14.424H15.7719V19H13.2279ZM28.1406 19V9.88H24.4606V7.8H34.3806V9.88H30.7006V19H28.1406ZM35.7591 19V7.8H39.3911L42.0311 16.6H42.1271L44.7671 7.8H48.4151V19H45.9671L46.0311 11.032H45.9511L43.4391 19H40.7351L38.2231 11.032H38.1431L38.2071 19H35.7591ZM50.5247 19V7.8H53.0688V16.92H58.6208V19H50.5247Z" fill="white"/>
<rect x="81.5" y="0.5" width="56" height="24" rx="12" stroke="white"/>
<path d="M99.3985 19.256C96.0385 19.256 93.7185 16.872 93.7185 13.4C93.7185 9.928 96.0385 7.544 99.3985 7.544C102.343 7.544 104.487 9.304 104.727 12.12H102.023C101.767 10.776 100.951 9.848 99.3985 9.848C97.3825 9.848 96.3905 11.224 96.3905 13.4C96.3905 15.576 97.3825 16.952 99.3985 16.952C100.951 16.952 101.767 16.024 102.023 14.68H104.727C104.487 17.496 102.343 19.256 99.3985 19.256ZM110.431 19.256C107.631 19.256 105.967 17.928 105.967 15.48H108.735C108.767 16.44 109.359 17.256 110.495 17.256C111.519 17.256 112.239 16.824 112.239 15.976C112.239 13.8 106.399 15.32 106.399 10.904C106.399 8.776 108.159 7.544 110.911 7.544C113.631 7.544 115.215 8.856 115.215 11.288H112.527C112.495 10.328 111.919 9.528 110.815 9.528C109.823 9.528 109.087 9.992 109.087 10.792C109.087 12.984 115.023 11.432 115.023 15.864C115.023 18.008 113.263 19.256 110.431 19.256ZM120.744 19.256C117.944 19.256 116.28 17.928 116.28 15.48H119.048C119.08 16.44 119.672 17.256 120.808 17.256C121.832 17.256 122.552 16.824 122.552 15.976C122.552 13.8 116.712 15.32 116.712 10.904C116.712 8.776 118.472 7.544 121.224 7.544C123.944 7.544 125.528 8.856 125.528 11.288H122.84C122.808 10.328 122.232 9.528 121.128 9.528C120.136 9.528 119.4 9.992 119.4 10.792C119.4 12.984 125.336 11.432 125.336 15.864C125.336 18.008 123.576 19.256 120.744 19.256Z" fill="white"/>
<rect x="164.5" y="36.5" width="77" height="24" rx="12" stroke="white"/>
<path d="M177.306 55V43.8H185.674V45.88H179.85V48.488H184.954V50.552H179.85V55H177.306ZM187.181 55V43.8H189.741V55H187.181ZM197.101 55.256C193.565 55.256 191.453 52.872 191.453 49.4C191.453 45.928 193.773 43.544 197.133 43.544C200.077 43.544 202.237 45.208 202.461 47.736H199.757C199.517 46.68 198.685 45.848 197.133 45.848C195.117 45.848 194.125 47.224 194.125 49.4C194.125 51.576 195.213 52.952 197.229 52.952C198.733 52.952 199.741 52.12 199.773 51.064H196.637V49.08H202.477C202.813 52.872 200.781 55.256 197.101 55.256ZM204.228 55V43.8H207.86L210.5 52.6H210.596L213.236 43.8H216.884V55H214.436L214.5 47.032H214.42L211.908 55H209.204L206.692 47.032H206.612L206.676 55H204.228ZM218.034 55L222.434 43.8H225.506L229.906 55H227.17L226.226 52.456H221.698L220.754 55H218.034ZM222.37 50.504H225.57L224.018 46.152H223.922L222.37 50.504Z" fill="white"/>
<rect x="149.5" y="0.5" width="91" height="24" rx="12" stroke="white"/>
<path d="M164.379 6.36364L167.192 15.2045H167.3L170.118 6.36364H172.845L168.834 18H165.663L161.646 6.36364H164.379ZM180.558 9.71023C180.513 9.25189 180.318 8.89583 179.973 8.64205C179.628 8.38826 179.161 8.26136 178.57 8.26136C178.168 8.26136 177.829 8.31818 177.553 8.43182C177.276 8.54167 177.064 8.69508 176.916 8.89205C176.772 9.08902 176.7 9.3125 176.7 9.5625C176.693 9.77083 176.736 9.95265 176.831 10.108C176.929 10.2633 177.064 10.3977 177.234 10.5114C177.405 10.6212 177.602 10.7178 177.825 10.8011C178.049 10.8807 178.287 10.9489 178.541 11.0057L179.587 11.2557C180.094 11.3693 180.56 11.5208 180.984 11.7102C181.409 11.8996 181.776 12.1326 182.087 12.4091C182.397 12.6856 182.638 13.0114 182.808 13.3864C182.982 13.7614 183.071 14.1913 183.075 14.6761C183.071 15.3883 182.89 16.0057 182.53 16.5284C182.174 17.0473 181.659 17.4508 180.984 17.7386C180.314 18.0227 179.505 18.1648 178.558 18.1648C177.619 18.1648 176.801 18.0208 176.104 17.733C175.411 17.4451 174.869 17.0189 174.479 16.4545C174.092 15.8864 173.89 15.1837 173.871 14.3466H176.251C176.278 14.7367 176.39 15.0625 176.587 15.3239C176.787 15.5814 177.054 15.7765 177.388 15.9091C177.725 16.0379 178.106 16.1023 178.53 16.1023C178.946 16.1023 179.308 16.0417 179.615 15.9205C179.926 15.7992 180.166 15.6307 180.337 15.4148C180.507 15.1989 180.592 14.9508 180.592 14.6705C180.592 14.4091 180.515 14.1894 180.359 14.0114C180.208 13.8333 179.984 13.6818 179.689 13.5568C179.397 13.4318 179.039 13.3182 178.615 13.2159L177.348 12.8977C176.367 12.6591 175.592 12.286 175.024 11.7784C174.456 11.2708 174.174 10.5871 174.178 9.72727C174.174 9.02273 174.361 8.4072 174.74 7.88068C175.123 7.35417 175.647 6.94318 176.314 6.64773C176.981 6.35227 177.738 6.20455 178.587 6.20455C179.45 6.20455 180.204 6.35227 180.848 6.64773C181.496 6.94318 182 7.35417 182.359 7.88068C182.719 8.4072 182.905 9.01705 182.916 9.71023H180.558ZM198.7 10.4375H196.212C196.166 10.1155 196.073 9.82955 195.933 9.57955C195.793 9.32576 195.613 9.10985 195.393 8.93182C195.174 8.75379 194.92 8.61742 194.632 8.52273C194.348 8.42803 194.039 8.38068 193.706 8.38068C193.104 8.38068 192.579 8.5303 192.132 8.82955C191.685 9.125 191.339 9.55682 191.092 10.125C190.846 10.6894 190.723 11.375 190.723 12.1818C190.723 13.0114 190.846 13.7083 191.092 14.2727C191.342 14.8371 191.691 15.2633 192.138 15.5511C192.585 15.839 193.102 15.983 193.689 15.983C194.018 15.983 194.323 15.9394 194.604 15.8523C194.888 15.7652 195.14 15.6383 195.359 15.4716C195.579 15.3011 195.761 15.0947 195.905 14.8523C196.053 14.6098 196.155 14.3333 196.212 14.0227L198.7 14.0341C198.636 14.5682 198.475 15.0833 198.217 15.5795C197.964 16.072 197.621 16.5133 197.189 16.9034C196.761 17.2898 196.25 17.5966 195.655 17.8239C195.064 18.0473 194.395 18.1591 193.649 18.1591C192.611 18.1591 191.683 17.9242 190.865 17.4545C190.051 16.9848 189.407 16.3049 188.933 15.4148C188.464 14.5246 188.229 13.447 188.229 12.1818C188.229 10.9129 188.467 9.83333 188.945 8.94318C189.422 8.05303 190.07 7.375 190.888 6.90909C191.706 6.43939 192.626 6.20455 193.649 6.20455C194.323 6.20455 194.948 6.29924 195.524 6.48864C196.104 6.67803 196.617 6.95455 197.064 7.31818C197.511 7.67803 197.875 8.11932 198.155 8.64205C198.439 9.16477 198.621 9.76326 198.7 10.4375ZM204.362 18.1705C203.48 18.1705 202.716 17.983 202.072 17.608C201.432 17.2292 200.938 16.7027 200.589 16.0284C200.241 15.3504 200.067 14.5644 200.067 13.6705C200.067 12.7689 200.241 11.9811 200.589 11.3068C200.938 10.6288 201.432 10.1023 202.072 9.72727C202.716 9.34848 203.48 9.15909 204.362 9.15909C205.245 9.15909 206.006 9.34848 206.646 9.72727C207.29 10.1023 207.786 10.6288 208.135 11.3068C208.483 11.9811 208.658 12.7689 208.658 13.6705C208.658 14.5644 208.483 15.3504 208.135 16.0284C207.786 16.7027 207.29 17.2292 206.646 17.608C206.006 17.983 205.245 18.1705 204.362 18.1705ZM204.374 16.2955C204.775 16.2955 205.11 16.1818 205.379 15.9545C205.648 15.7235 205.851 15.4091 205.987 15.0114C206.127 14.6136 206.197 14.161 206.197 13.6534C206.197 13.1458 206.127 12.6932 205.987 12.2955C205.851 11.8977 205.648 11.5833 205.379 11.3523C205.11 11.1212 204.775 11.0057 204.374 11.0057C203.968 11.0057 203.627 11.1212 203.351 11.3523C203.078 11.5833 202.872 11.8977 202.732 12.2955C202.595 12.6932 202.527 13.1458 202.527 13.6534C202.527 14.161 202.595 14.6136 202.732 15.0114C202.872 15.4091 203.078 15.7235 203.351 15.9545C203.627 16.1818 203.968 16.2955 204.374 16.2955ZM213.447 18.142C212.785 18.142 212.184 17.9716 211.646 17.6307C211.112 17.286 210.688 16.7803 210.374 16.1136C210.063 15.4432 209.908 14.6212 209.908 13.6477C209.908 12.6477 210.069 11.8163 210.391 11.1534C210.713 10.4867 211.141 9.98864 211.675 9.65909C212.213 9.32576 212.802 9.15909 213.442 9.15909C213.93 9.15909 214.338 9.24242 214.663 9.40909C214.993 9.57197 215.258 9.77652 215.459 10.0227C215.663 10.2652 215.819 10.5038 215.925 10.7386H215.999V6.36364H218.413V18H216.027V16.6023H215.925C215.811 16.8447 215.65 17.0852 215.442 17.3239C215.237 17.5587 214.97 17.7538 214.641 17.9091C214.315 18.0644 213.917 18.142 213.447 18.142ZM214.214 16.2159C214.605 16.2159 214.934 16.1098 215.203 15.8977C215.476 15.6818 215.684 15.3807 215.828 14.9943C215.976 14.608 216.05 14.1553 216.05 13.6364C216.05 13.1174 215.978 12.6667 215.834 12.2841C215.69 11.9015 215.482 11.6061 215.209 11.3977C214.936 11.1894 214.605 11.0852 214.214 11.0852C213.817 11.0852 213.482 11.1932 213.209 11.4091C212.936 11.625 212.73 11.9242 212.589 12.3068C212.449 12.6894 212.379 13.1326 212.379 13.6364C212.379 14.1439 212.449 14.5928 212.589 14.983C212.733 15.3693 212.94 15.6723 213.209 15.892C213.482 16.108 213.817 16.2159 214.214 16.2159ZM224.381 18.1705C223.483 18.1705 222.71 17.9886 222.062 17.625C221.419 17.2576 220.922 16.7386 220.574 16.0682C220.225 15.3939 220.051 14.5966 220.051 13.6761C220.051 12.7784 220.225 11.9905 220.574 11.3125C220.922 10.6345 221.413 10.1061 222.045 9.72727C222.682 9.34848 223.428 9.15909 224.284 9.15909C224.86 9.15909 225.396 9.25189 225.892 9.4375C226.392 9.61932 226.828 9.89394 227.199 10.2614C227.574 10.6288 227.866 11.0909 228.074 11.6477C228.282 12.2008 228.386 12.8485 228.386 13.5909V14.2557H221.017V12.7557H226.108C226.108 12.4072 226.032 12.0985 225.881 11.8295C225.729 11.5606 225.519 11.3504 225.25 11.1989C224.985 11.0436 224.676 10.9659 224.324 10.9659C223.956 10.9659 223.631 11.0511 223.347 11.2216C223.066 11.3883 222.847 11.6136 222.688 11.8977C222.528 12.178 222.447 12.4905 222.443 12.8352V14.2614C222.443 14.6932 222.523 15.0663 222.682 15.3807C222.845 15.6951 223.074 15.9375 223.369 16.108C223.665 16.2784 224.015 16.3636 224.42 16.3636C224.689 16.3636 224.936 16.3258 225.159 16.25C225.383 16.1742 225.574 16.0606 225.733 15.9091C225.892 15.7576 226.013 15.572 226.097 15.3523L228.335 15.5C228.222 16.0379 227.989 16.5076 227.636 16.9091C227.288 17.3068 226.837 17.6174 226.284 17.8409C225.735 18.0606 225.1 18.1705 224.381 18.1705Z" fill="white"/>
<g clip-path="url(#clip0_146_98)">
<g filter="url(#filter0_d_146_98)">
<path d="M18.6946 55.256C15.1586 55.256 13.0466 52.872 13.0466 49.4C13.0466 45.928 15.3666 43.544 18.7266 43.544C21.6706 43.544 23.8306 45.208 24.0546 47.736H21.3506C21.1106 46.68 20.2786 45.848 18.7266 45.848C16.7106 45.848 15.7186 47.224 15.7186 49.4C15.7186 51.576 16.8066 52.952 18.8226 52.952C20.3266 52.952 21.3346 52.12 21.3666 51.064H18.2306V49.08H24.0706C24.4066 52.872 22.3746 55.256 18.6946 55.256ZM25.8216 55V43.8H28.3816V55H25.8216ZM33.4375 55V45.88H29.7575V43.8H39.6775V45.88H35.9975V55H33.4375Z" fill="white"/>
</g>
</g>
<rect x="0.5" y="36.5" width="51" height="24" rx="12" stroke="white"/>
<rect x="64.5" y="36.5" width="86" height="24" rx="12" stroke="white"/>
<path d="M83.1634 55.256C79.6274 55.256 77.5154 52.872 77.5154 49.4C77.5154 45.928 79.8354 43.544 83.1954 43.544C86.1394 43.544 88.2994 45.208 88.5234 47.736H85.8194C85.5794 46.68 84.7474 45.848 83.1954 45.848C81.1794 45.848 80.1874 47.224 80.1874 49.4C80.1874 51.576 81.2754 52.952 83.2914 52.952C84.7954 52.952 85.8034 52.12 85.8354 51.064H82.6994V49.08H88.5394C88.8754 52.872 86.8434 55.256 83.1634 55.256ZM90.2904 55V43.8H92.8504V55H90.2904ZM97.9062 55V45.88H94.2263V43.8H104.146V45.88H100.466V55H97.9062ZM105.525 55V43.8H108.069V48.376H112.837V43.8H115.381V55H112.837V50.424H108.069V55H105.525ZM122.182 55.256C119.558 55.256 117.398 54.04 117.398 50.904V43.8H119.958V50.616C119.958 52.12 120.598 53.112 122.182 53.112C123.766 53.112 124.422 52.12 124.422 50.616V43.8H126.966V50.904C126.966 54.04 124.822 55.256 122.182 55.256ZM128.978 55V43.8H134.21C136.594 43.8 137.938 44.888 137.938 46.696C137.938 48.216 136.498 49.08 135.234 49.112V49.208C136.498 49.24 138.226 49.96 138.226 51.864C138.226 53.816 136.85 55 134.466 55H128.978ZM131.522 53.016H134.098C134.882 53.016 135.57 52.488 135.57 51.64C135.57 50.792 134.882 50.296 134.098 50.296H131.522V53.016ZM131.522 48.344H133.858C134.722 48.344 135.362 47.848 135.362 47.048C135.362 46.232 134.722 45.752 133.858 45.752H131.522V48.344Z" fill="white"/>
<defs>
<filter id="filter0_d_146_98" x="9.04688" y="43.5469" width="34.6309" height="19.7109" filterUnits="userSpaceOnUse" color-interpolation-filters="sRGB">
<feFlood flood-opacity="0" result="BackgroundImageFix"/>
<feColorMatrix in="SourceAlpha" type="matrix" values="0 0 0 0 0 0 0 0 0 0 0 0 0 0 0 0 0 0 127 0" result="hardAlpha"/>
<feOffset dy="4"/>
<feGaussianBlur stdDeviation="2"/>
<feComposite in2="hardAlpha" operator="out"/>
<feColorMatrix type="matrix" values="0 0 0 0 0 0 0 0 0 0 0 0 0 0 0 0 0 0 0.25 0"/>
<feBlend mode="normal" in2="BackgroundImageFix" result="effect1_dropShadow_146_98"/>
<feBlend mode="normal" in="SourceGraphic" in2="effect1_dropShadow_146_98" result="shape"/>
</filter>
<clipPath id="clip0_146_98">
<rect y="36" width="52" height="25" rx="12.5" fill="white"/>
</clipPath>
</defs>
</svg>
